# xmcd CD database file generated by Grip 2.95
# 
# Track frame offsets:
#       150
#       13912
#       25782
#       41490
#       57830
#       70932
#       92982
#       104312
#       116945
#       132595
#       146145
#       156535
#       177265
#       193662
#       203820
# 
# Disc length: 2907 seconds
# 
# Revision: 3
# Processed by: cddbd v1.4PL0 Copyright (c) Steve Scherf et al.
# Submitted via: Grip 2.95
# 
DISCID=e40b590f
DTITLE=Joe Goldmark - Strong Like Bull... But Sensitive Like Squirrel!
DYEAR=1900
DGENRE=
TTITLE0=Joe's Jump
TTITLE1=These Arms of Mine
TTITLE2=Butane
TTITLE3=Bargain Bolero
TTITLE4=Okra Dokey
TTITLE5=Walk Around Heaven
TTITLE6=Going Up River
TTITLE7=Take Four
TTITLE8=Bells of Madness
TTITLE9=Fog City
TTITLE10=Lonely Weekends
TTITLE11=Presence of the Lord
TTITLE12=Sensitive Like Bull
TTITLE13=Desert Drive
TTITLE14=Peace, Love and Understanding
EXTD=
EXTT0=
EXTT1=
EXTT2=
EXTT3=
EXTT4=
EXTT5=
EXTT6=
EXTT7=
EXTT8=
EXTT9=
EXTT10=
EXTT11=
EXTT12=
EXTT13=
EXTT14=
PLAYORDER=
